<?xml version="1.0" encoding="UTF-8"?>
<svg xmlns="http://www.w3.org/2000/svg" viewBox="0 0 420 940"
     font-family="'Helvetica Neue', Arial, sans-serif">

  <!-- Outer background -->
  <rect width="420" height="940" fill="#1A1A1A"/>

  <!-- Screen label -->
  <text x="210" y="918" fill="#666" font-size="13" text-anchor="middle">4 / 5 — History (Session Detail) Screen</text>

  <!-- Phone body -->
  <rect x="5" y="5" width="410" height="890" rx="50" ry="50"
        fill="#000" stroke="#444" stroke-width="2"/>

  <!-- Dynamic island -->
  <rect x="150" y="18" width="120" height="30" rx="15" fill="#111"/>

  <!-- Status bar -->
  <text x="35" y="42" fill="#FFF" font-size="12" font-weight="600">9:41</text>
  <text x="385" y="42" fill="#FFF" font-size="11" text-anchor="end">● ● ▮</text>

  <!-- ── APP BAR ── -->
  <text x="20" y="100" fill="#FFF" font-size="20">‹</text>
  <text x="42" y="100" fill="#FFF" font-size="18" font-weight="700">Session Detail</text>
  <line x1="5" y1="115" x2="415" y2="115" stroke="#1C1C1C" stroke-width="1"/>

  <!-- ── SESSION HEADER ── -->
  <text x="20" y="148" fill="#FFF" font-size="17" font-weight="600">Monday, March 17 2025 – 09:30</text>
  <text x="20" y="170" fill="#888" font-size="13">Upper body push day — feeling strong</text>

  <!-- Divider -->
  <line x1="20" y1="188" x2="400" y2="188" stroke="#222" stroke-width="1"/>

  <!-- ── SET LIST ── -->

  <!-- Set 1 -->
  <text x="20" y="216" fill="#555" font-size="12">#1</text>
  <text x="52" y="216" fill="#FFF" font-size="14">Barbell Bench Press</text>
  <text x="398" y="216" fill="#888" font-size="13" text-anchor="end">8 × 80.0 kg</text>
  <line x1="20" y1="230" x2="400" y2="230" stroke="#1C1C1C" stroke-width="1"/>

  <!-- Set 2 -->
  <text x="20" y="256" fill="#555" font-size="12">#2</text>
  <text x="52" y="256" fill="#FFF" font-size="14">Barbell Bench Press</text>
  <text x="398" y="256" fill="#888" font-size="13" text-anchor="end">8 × 80.0 kg</text>
  <line x1="20" y1="270" x2="400" y2="270" stroke="#1C1C1C" stroke-width="1"/>

  <!-- Set 3 -->
  <text x="20" y="296" fill="#555" font-size="12">#3</text>
  <text x="52" y="296" fill="#FFF" font-size="14">Barbell Bench Press</text>
  <text x="398" y="296" fill="#888" font-size="13" text-anchor="end">6 × 82.5 kg</text>
  <line x1="20" y1="310" x2="400" y2="310" stroke="#1C1C1C" stroke-width="1"/>

  <!-- Set 4 -->
  <text x="20" y="336" fill="#555" font-size="12">#4</text>
  <text x="52" y="336" fill="#FFF" font-size="14">Overhead Press</text>
  <text x="398" y="336" fill="#888" font-size="13" text-anchor="end">10 × 55.0 kg</text>
  <line x1="20" y1="350" x2="400" y2="350" stroke="#1C1C1C" stroke-width="1"/>

  <!-- Set 5 -->
  <text x="20" y="376" fill="#555" font-size="12">#5</text>
  <text x="52" y="376" fill="#FFF" font-size="14">Overhead Press</text>
  <text x="398" y="376" fill="#888" font-size="13" text-anchor="end">10 × 55.0 kg</text>
  <line x1="20" y1="390" x2="400" y2="390" stroke="#1C1C1C" stroke-width="1"/>

  <!-- Set 6 -->
  <text x="20" y="416" fill="#555" font-size="12">#6</text>
  <text x="52" y="416" fill="#FFF" font-size="14">Tricep Pushdown</text>
  <text x="398" y="416" fill="#888" font-size="13" text-anchor="end">12 × 35.0 kg</text>
  <line x1="20" y1="430" x2="400" y2="430" stroke="#1C1C1C" stroke-width="1"/>

  <!-- Set 7 -->
  <text x="20" y="456" fill="#555" font-size="12">#7</text>
  <text x="52" y="456" fill="#FFF" font-size="14">Tricep Pushdown</text>
  <text x="398" y="456" fill="#888" font-size="13" text-anchor="end">12 × 35.0 kg</text>
  <line x1="20" y1="470" x2="400" y2="470" stroke="#1C1C1C" stroke-width="1"/>

  <!-- Set 8 -->
  <text x="20" y="496" fill="#555" font-size="12">#8</text>
  <text x="52" y="496" fill="#FFF" font-size="14">Dips</text>
  <text x="398" y="496" fill="#888" font-size="13" text-anchor="end">10 × BW</text>
  <line x1="20" y1="510" x2="400" y2="510" stroke="#1C1C1C" stroke-width="1"/>

  <!-- Home indicator -->
  <rect x="160" y="862" width="100" height="5" rx="2.5" fill="#333"/>
</svg>
